<svg id="Graphic_Element" data-name="Graphic Element" xmlns="http://www.w3.org/2000/svg" viewBox="0 0 1200 1200"><g id="Graphic_Element-2" data-name="Graphic Element"><path d="M570,80c-22.92-.06-45.85.18-68.71,1.19-13.7,4.2-28.16-2.08-41.73,3.19-7.78,10.12-18.8,17-30.16,22.41-22.75,11.59-42,28.46-63.22,42.47-16.61,11.09-27.95,27.83-42.86,40.84-4.59,3,1.8,7.62-1,11.22-7.24,11.36.2,25.33,6.53,35.48-3,26-6.09,52.18-12.18,77.75-2.9,19.24-13.3,36.56-14,56.26-2.49,0-3,3.1-3.88,4.86-10.48,35.33-24.86,69.51-31.28,106-8.47,30.71-18,61.71-18.44,93.83-.82,9.43-3.3,18.66-3.89,28.12C241.3,642.37,227,678.82,214.31,715.3c-14.11,39.15-15.8,81.22-26.45,121.24-9.41,62.13-24.93,123.14-34.41,185.23-4.21,19.16-9.17,38.75-6.52,58.49,1.14,8.26,7.08,17.11,16.37,16.59,19.31,3.12,35.43-9.26,48.39-21.77,5.75-5.59,16.52-6.49,19.59-14.19,8.91-14.64,8.34-32.59,8.21-48.78,89.62-8.3,180.8-14.07,268.53-36.67,8.05-6,7.56,2.27,9.49,6.12l-1.51-.18c-7,36.27-11.66,73.74-6.36,110.57,3,9,6.43,21,16.68,23.77,11.08,10.28,28.95.12,35.76-10.58,9.44-9,31.11-10.07,30.56-26.71,2.68-48,14.09-95.36,13.3-143.58,12-67.3,14.46-135.93,23.48-203.65,2.81-28.79,2.47-58.56,11.26-86.37C653,689.43,665.37,733.9,677,778.68c11.69,31.25,16.22,64.6,26.26,96.39,11.85,52.36,29.29,103.83,33.08,157.67,7.31,16.66,5,35.38,9.56,52.72,1.78,7.11,11.79,5.42,16.69,2.84,11.14-6.53,23.15-11.6,33.72-19,8.45-11.41,15.53-23.81,22.39-36.2.17-24.88-10.28-48.12-17.39-71.49-7.1-16.77-7.92-35.43-14.9-52.24-2.55-5.92-5.82-11.79-6.19-18.36,3.79-3.81,9.14-5.44,14.23-6.56,39-10.22,78.88-17,117.83-27.58,7.06,7.27,5.84,20.25,12.25,26.79,8,46,23.31,90.46,32.89,136.12.13,9.59-2.28,22.49,6.56,29,13.79,19.09,40.73,18,60.47,10.38,10.28-5,24.4-6.47,28.77-18.82,2.63-15.73-4.49-30.31-9-44.93-1.25-2.54-1.64-6.48-4.71-7.38.39-8.84-1.14-18-7-24.9-12.39-28.6-14.61-60.45-26-89.47C992.29,827.48,974.32,782.44,964,735.1c-19.61-56.34-34-114.18-49.87-171.56-15.77-38-21.74-79.32-34.84-117.95-.62-9.21-7-16.49-10.55-24.64-6.66-12.77-8.76-27.11-12.73-40.78-.93-7.72-1.58-15.53-3.74-23-10.91-27.61-21.41-56-25-85.57-6.63-.42-6.22-8.92-8.56-13.59-8.21-20.07-11.74-42.65-24.2-60.75-2.47-6.39-5.79-12.43-8.94-18.48-2.52-9.85-9.09-17.87-13.59-26.81-6.14-11.45-8.9-24.6-16.59-35.22-6.05-5.86-13.15-10.52-19.77-15.67-7-6.34-17.72-.2-24.83-6.56-20.63-15.65-48.51-7.92-72.09-13.94-22.89-.17-45.82-.53-68.75-.59ZM739.42,205.38c-9.24,12.08,1.29,25.9,5.3,37.82,9.34,20.28,8.08,43.55,17.95,63.59-.81,3.34-3.71,6.54-7.33,6.48-2.82-3.48-4.15-11.29-9.18-5.71-23.67,8.16-45.22,20.73-69,28.5,3.47-16.81,9.06-33.06,14.46-49.31,3.44-17,6.64-34,11.41-50.64,2.8-7.79,4.27-18.94,13.3-22,7.65-3,15.4-5.81,23.08-8.74ZM414.78,259.94c11.69.13,23.53,3,35.25,2.06,46.45,2.75,93,4.47,139.44,6.87,5.1-.89,16.68,1.68,10.56,10.28-5.2,24.51-16,47.39-21.95,71.75-2.45,13.4-19.76,12.33-29.82,8.5-44.22.47-87.73,9.07-131.12,16.79-13.35,3.39-27.79,11.27-41.43,8.22-3.52-11.14,5.7-22.41,5.38-34,4.73-21.36,13.19-41.85,15.57-63.66,3.57-7.77-4.55-19.26,3.4-25A47.77,47.77,0,0,1,412.44,260c.78,0,1.56,0,2.34,0Zm352.58,89.24a7.28,7.28,0,0,1,6.38,4.37c8.61,26.05,12.63,53.24,20.75,79.41,2.43,6.81-9.47,4.54-12,7-14.14,2.8-26.05,11.57-37.91,19.18-25.46,4.87-46.35,21.07-67.9,34.27-4,2.85-7.13-2-10.18-4-2.79-3.08-6.21-6-7.42-10.06-4-30.26,3-60.25,9.3-89.62,20.86-8.39,42.07-16.43,61.86-27.25,11.47-3,20.61-11.75,32.83-12.51a11.52,11.52,0,0,1,3.18-.7,8.84,8.84,0,0,1,1.15,0ZM560.58,448.82c5.8,0,11.89,2.34,8.2,10.35-2.26,20.82-6.66,41.46-11.94,61.74-1.44,5.07-3.37,12.88-11.42,8.81-12.28,1-22.43-11.56-34.51-6.36-56.39-6.05-113.61-4.83-170,1.58,1.22-10.69,4-21.12,5.64-31.71C341,486.86,340.79,472,351.73,472c14.71.44,29.37,3,44.13,1.61,30-4.73,60.92-2.83,90.7-9.63,19.81-1.57,39.56-3.69,59.39-5.13,5.18-.27,6.36-6.09,9.29-9.34a20.88,20.88,0,0,1,5.33-.69ZM806.92,469.4c6.62,15.08,8.12,31.94,15,46.93,7.56,14.41,7.21,32.55,2.93,47.63-24.05,18.13-47.43,42.11-79.1,45.5-12.68,1.92-27.81,1.61-34.72,14.46-1.36,8.88-14.64,4.33-10.28-2.35,6.46-8.37,5.41-20.34,0-29-8.65-22.68-18.26-45.64-19.25-70.25,12-5.57,24.94-8.32,37.62-11.67,13.14-3.53,22.29-14.72,35.09-19,8.81-3.15,18.79-4.11,26.39-10.06,8.12-5.34,16.47-10.84,26.35-12.18ZM545.56,583.06a4.51,4.51,0,0,1,4.54,3,197.89,197.89,0,0,1-11.85,72.85c-9,2.48-9.76-14.29-20.34-8.47-18.17.9-36.8-2.42-54.57,2.53-42.27-.29-83.93,7.31-125.7,12.83-6.74.85-12.88,5.22-19.79,4.71-10-7.44,3.59-21.07-.32-30.26a34.82,34.82,0,0,0-3.22-5.43c-4.38-4.06-3.81-10.35-.64-15,68.15-12.18,138.94-6.14,206-25,5.23-1,9.27-4.35,12.22-8.66,3.36.42,9.31-3.11,13.65-3.08ZM831.12,618.4a29.07,29.07,0,0,1,4.33.32c12.3,3.54,17.93,15.81,21.92,26.84,5.88,17.74,12.74,35.2,17,53.45,5.49,33.21,24.34,63.41,24.64,97.68-2.75,4.69-8.8,6.79-13.06,10.09-37.86,8.66-76.26,16.38-115,19.39-9.34-16.13.34-36.7-12.34-51.79-14.45-29.71-12.67-64.78-28.25-94-3.78-6.22-9.56-13.9-5.74-21.39,12.21-6.34,25.75-9.84,38.11-16,13-7.17,29.81-3.88,41.31-14.14,8.21-5.24,17.13-10.48,27.09-10.52ZM309.94,633.84h0a7.45,7.45,0,0,0-.84.09,7.52,7.52,0,0,1,.83-.09Zm224,87.65a28.14,28.14,0,0,1,4.77.55c-1.87,16.54-6.44,32.78-6.23,49.55l-.23,1.43c-4.41,12.7-20.73,5.32-30.23,7.33-71,4.26-141.65,14.59-212.82,16-5.25-13.86-1.86-39.64,16.91-41.35,38.91-6.64,77.84-13.39,117.21-16.81,26.55-1.78,52.59-9.64,79.34-8.08C513,727,523,721.16,534,721.5Zm-10,117.43c-.79,26.14-1.51,52.5-5.2,78.39-23.47-6.38-49.34-8.19-73-4.21-7,1.34-14,2.61-21.05,3.94-51.76,3.34-103.51,7.63-155.41,8.25-6.91-6.88,1.21-16.49.49-24.1-5-7.45-5.65-16.76-3.94-25.41,7.85-.64,15.85.11,23.61-1.46,14.68-4.43,30,.31,44.84-2.35,55.51-5.52,112-7.72,166-23,3.69-10,14.49-9.36,23.67-10Z" style="fill:#e8bd9c"/><path d="M580.11,83.27c-26.4,0-52.81.5-79.15,1.35-12.56,1-25.17.19-37.75.62-10.85,17.32-32.57,20.74-47.59,33-21.29,14.41-41.89,29.47-62.73,44.58-8.56,9.72-16.47,20.05-26.59,28.28C315.94,213,328.51,245.74,355,247.24c34.05.63,67.32,10.24,101.58,6.88,14.31-5.85,6.84,1.09,4.85,4.7,43.92-1.74,87.81,3.3,131.75,2.59,6.56,3.23,8.93-2.54,12.59-5.6,36.24-9.42,63.35-37.74,92.89-59.2,16.22-7.65,26.75-22.38,38.83-35,8.11-12.83,17.12-30.11,7.56-44.45-2.26-10.22-14.94-10.23-22.25-5.72-25.89,16.12-42.57,42.81-67.13,60.6-29.87,24.16-67,41.68-106.22,39-46.36-10.77-94.79-1.16-141.85-6.44-20.65-3.73-41.74-3.24-62.48-6-2.86-.42-7.33-2.15-6-5.81,6.58-13.18,21.37-18.95,30.26-30.29,17.39-12.06,32.14-27.66,50.61-38.26,13.34-7.11,23.68-19.61,39.25-22.21,6-1.64,8.44-10.37,16.35-6.81,61.25.77,122.56-1.49,183.76,1.58,14.54.3,28.59,5.83,43,6.56,2.2-2.67,4.44-5.79,4.18-9.43-14.75-6.93-31.46-6.37-47.28-8.66-26.34-1.4-52.74-2-79.14-2Zm152.35,44c5.55-.11,4.81,9.43,3.55,14-8.22,20.22-28.67,31.08-43.79,45.5-9.54,10.52-24.39,12-35.88,19.37-13.73,13.85-27.72,27.66-42.71,40.07-8.23,1-9.75-10-9-16.07,4.36-14.64,17.32-25.19,30.71-31.42,21-17.16,46.15-29.14,64.54-49.6,10.69-6.48,18.62-17.5,30.69-21.49A6.36,6.36,0,0,1,732.46,127.29Zm40.69,34.91a52.86,52.86,0,0,0-.08,10.37c11.37,25.85,20.36,52.74,30.22,79.19,5.81,30.49,22.18,57.68,27.4,88.33,2.44,20.31,17.63,36,20.9,56.19,9.35,40.69,25.89,79.55,31.46,121.14,3,20.6,10.79,40,15.3,60.25,8.56,39.17,20.77,77.44,29.2,116.65,13.15,45.15,35.73,87.12,46.3,133.12,5.39,15,16.82,27.67,18,44.21,5.29,35.79,23.26,67.85,31.15,102.93,6.72,18.19,21.76,36.31,15.59,56.78-7,.26-7.73-8.72-10.63-13.24-7.21-20.48-15.42-40.58-22.44-61.12-14.77-28.42-21.87-59.85-30.07-90.55-11.69-25-22-50.71-28.22-77.63-12.75-34.1-20.15-69.8-31.68-104.27C892.89,602,868.83,519.71,850.44,436c-8.62-28.19-16.46-56.77-28.74-83.67-6.64-12.89-8.44-27.53-14.67-40.59-21.37-41.29-24.53-89.44-46-130.59-.71,0-2.12.06-2.82.08,3.09,39.85,19.47,76.63,29.09,114.93,5.81,20.39,19.08,37.63,23.78,58.39,3.3,12.26,10.63,23,13.35,35.49q8,37.8,16.47,75.48c8.34,19.06,9.08,40.14,16,59.64,20.23,60.52,31.38,123.53,50.54,184.41,5.64,29.66,17.81,57.44,28.09,85.66,19.38,32.36,21.71,71,35.71,105.54,3.55,15.83,7.23,31.81,16.5,45.49,8.61,21.39,13.76,44.12,23.77,65,4.88,11.76,13.45,22.73,12.94,36.1-12.47,3.35-25.77,2-38.33.29-10-11.69-12-27.92-17.67-41.82-14.54-32.75-20.32-68.49-27.54-103.34-4.68-15.49-6.51-31.66-7.59-47.74-2.26-6.45-6-14.6-13.64-15.76-11.27-3.63-20.45,4.8-30.43,8.09C878,851.66,865,846,854.12,852c-28.23,14.47-60.41,19.82-91.91,18.3-4-.08-9.44-3.38-5.56-8.92,13.78-16.32,33.17-28.13,54.62-30.51,31.06-5.72,67.92,4,94.33-17.87,11.93-9.46,8-28.24,2.34-40.27-18.51-55.46-24.58-115.47-52.69-167.46-1.6-1.25-4.78-3.76-6.35-5-25.84-2.69-46.25,14.88-67.46,26.35-10.91,5-22.73,7.48-34,11.61-7.4,1.5-19.71,8.1-25-.42C740.18,619.33,767,620,789.25,611c20-13.45,37.67-30.08,57.64-43.51,1-35.47-19.71-66-23.93-100.49-12-39.39-28.49-78-32.55-119.31C787,335.39,771.57,327,760.34,335.17c-16,8.61-34.25,11.6-49.55,21.46-7.43,4-16.44,4.44-23,10.29-6.3,3.63-13.87,12.08-21.41,6.7.79-8.82,8.67-14.71,14.76-20.14,19.89-17.37,46.29-23,69-35.28,3.55-4.2-.1-8.64-4-10.63-23.68,8.15-45.23,20.72-69,28.49,3.47-16.8,9.05-33.06,14.46-49.31,3.44-17,6.64-34,11.41-50.63-1.44-6,9.07-21.92-2.73-22-11,9.15-12.37,23.9-16.11,36.7C670.28,293.54,669,339.07,656,382.05c-10.68,51.23-10.27,104-18.83,155.59-11.27,39.24-14.37,80.19-24.77,119.63-6.24,42.2-14.32,84.37-14.68,127.16,4.9,56-13.31,110.38-17.47,165.82-1.35,10.2-4.87,20.06-4.34,30.47,2.3,32.84-1.8,65.65-2.2,98.47-.67,12.28-16.44,16.89-26.5,18.53,4.4-30.51,1.34-61.55,6.14-92,3.25-23.23,2.07-46.85,5.2-70.05,10.83-37.44,11.14-76.8,14.06-115.38,2.44-30.44-2.45-61.12,2.44-91.39,4.57-27.57,4-55.68,9.21-83.15,5.85-48.91,22.57-96.39,21.66-146.09-.2-33.39,8.13-65.86,16-98,7.52-44.22,22.54-86.92,27.53-131.56l-4.1.56c-14,24.24-18.11,52.22-23.29,79.29-3.61,34.36-15,67.26-19.2,101.52-4.29,22.93-2.78,46.79-9.25,69.34-3.82,10-6.44,20.41-6.23,31.19-.29,34.22-7,67.88-12.43,101.53-2.87,40.41-4.19,81.09-11.53,121-3.47,41.91-7.62,83.76-11.71,125.57-11.52,56-2.54,114-14.91,169.77-1.91,11.28-2.13,23.13-6.39,33.91-4.24-.82-6.17-5-7.16-8.74-5.24-22-8.79-44.76-5.24-67.31,4.16-25.44,11.26-50.45,12.92-76.29,1.57-36,4.76-71.93,4.42-108-.74-27.39.38-55.56,9.15-81.72,3.62-40.21,19.39-78.72,17.8-119.46-.64-40,7.32-79.47,9.74-119.32,3.08-41.24,19.05-80.5,19-122,5.54-36,19.25-71.62,17.32-108.19-9.87,9.36-10.68,24-15.71,35.93-7.23,18.59-8,38.68-10.37,58.25-9.22,35.09-7.57,71.9-15.4,107.26-9.87,39.69-11.21,80.74-15.63,121.2,3.5,52.75-8.18,104.91-18.68,156.25l-.24,1.42c-2.6,29.55-8.67,58.88-7,88.67.07,10.23.15,20.57-1.47,30.7-5.1,29.45,2.83,60.26-6.31,89.19-4,35.79-11.8,71.72-5.89,107.85,1.07,10.56,8.55,18.34,14.69,26.31,11.09,10.28,29,.11,35.76-10.59,5.09-6.51,13.69-9.67,18.44-16,8.37-85.49,22.68-170.38,28.21-256.2-.58-81.1,13.59-161.23,25.24-241.17,5.61-26.17,16.33-51.48,17.66-78.49,4.21,5.53,7.89,12.66,15.86,11.21,5.23,16.07,5.15,33.92,13.94,48.79,7.73,13.26,10.66,28.27,14.17,43,14.13,4.6,4.86-15.3,5.13-23.67-8.66-22.68-18.28-45.64-19.26-70.25,12-5.57,24.94-8.31,37.62-11.66,13.13-3.53,22.3-14.72,35.09-19,8.81-3.15,18.78-4.11,26.39-10.06a193.14,193.14,0,0,1,17.82-14.35c5-.39,4.42-12.8-3.22-4.78-16,2.65-26.15,17.6-42,20.17-14.94,3.46-28,11.92-40.26,20.75-14.56,4.69-31.92,2-44.56,12-5,3.2-15.22-6.44-8.15-10,13.74-5.15,29.54-5,41.88-13.61,26.74-19.19,59.63-27,86.9-45.35,1.76-3.1,6.11-11.46-4.21-4.7-14.65,2.62-25.94,13.84-40.2,17.38-25.47,4.86-46.35,21.07-67.9,34.27-4,2.85-7.13-2-10.19-4-11.47-6.4,3.14,17.12-11.93,8,.31-31.13.59-62.33,6.48-93.05,1.75-6.25-1.85-17.28,6.63-19.07a186.33,186.33,0,0,0,46.26-18.58c4.92-2.95,10.69-3.62,16.3-4.23,11.47-3,20.61-11.75,32.82-12.52,4.28-1.55,8.6-.7,10.72,3.67,14.56,23.1,12.74,52.24,23.21,77.11,14.21,26.55,15.87,57.41,27.32,85,7.32,15.31,6.38,34,2.16,49.87-23.89,30.62-63.08,47.16-101.4,49.26-14.17,5-22.38,26.11-12.26,38.11,15.78,3.67,31.25-5.65,45.87-10.69,14.39-6.88,30.68-7.32,45.38-13.33,9.38-6,19.7-12,31.43-10.2,12.29,3.54,17.92,15.82,21.91,26.84,5.88,17.75,12.73,35.21,17,53.46,5.49,33.21,24.34,63.4,24.64,97.67-2.75,4.7-8.81,6.79-13.06,10.09-12,7.53-27,8.22-40.48,11.28-26.52,3.62-52.66,9.54-79.24,12.57-8.67,1.54-7.91,13.19-14.38,18-8.6,6.9-11.68,20.86-2.18,28.6,7.57,4.52,14.48,10.09,22.18,14.38,24.69-13.11,52.68-17.11,79.49-24,21.43-5.87,43-11.42,64.86-15.37,3.54,10.2,6.76,20.65,8.41,31.36,8,46,23.31,90.47,32.89,136.12.14,9.6-2.28,22.49,6.56,29,10.74,6.66,22.39,13.86,35.54,13.65,13.31-1.91,26.26-6.05,38.71-11,6.31-3,13.47-8,13.65-15.57-.85-16.63-7.81-32-12.32-47.86-9.54-25.9-20.08-51.51-24.84-78.87-9.07-31.49-19.1-62.84-30.66-93.49-14-37.24-32.84-73.28-39.06-113-1.6-10.66-9-19.2-11.52-29.56-8.67-35.22-18.85-70.09-26.92-105.44-8.26-40.81-20.94-80.85-27.28-122-.62-9.22-7-16.49-10.55-24.64-6.65-12.77-8.74-27.12-12.72-40.78-2.72-8-7.55-15-11.17-22.53-12.36-29.37-14.52-61.81-26-91.49-6.86-23.42-16.12-46-24.33-68.88-2.46-6.39-5.79-12.43-8.94-18.49-3.76-5.8-6.6-12.56-12.48-16.59ZM345.18,206A149.9,149.9,0,0,1,370,207.76c5.68,2.4,9.53,9.14,17,6.55,60.31.51,120.81-2.86,180.17,8.88,8.54,2.28,21-1.66,27,6.94a46,46,0,0,1,2.9,22.56c-52,3.69-103.19-9.64-155.07-9.77-26.46-7.33-54.59-4.15-81.39-7.64-6.75-6.87-20.15-2.14-23.87-11.94-.41-5.45-8.84-14.64.28-17.07,2.75-.16,5.52-.25,8.27-.28ZM743,211.18l-2.54.14c-6.68,3.45-1.88,10.92,0,15.91C750.7,247,755.18,269,759.06,290.68c.52,5.55,1.53,16.05,10.88,10.54-.06-31.73-10.61-63-27-90ZM345.61,258.06C340.27,258,335,259.37,330,261c-3.54,37.8-14,74.45-27.32,109.83a502.19,502.19,0,0,1-18.59,55.47c-8.92,34.63-18.49,69.12-26.76,103.9-5.41,21.5-2.56,44-6.57,65.64-5.08,34.85-15.95,68.51-27.41,101.68-11.54,26.14-17.07,54.32-21.6,82.38-15.62,76.47-26.05,154-43.48,230-3.19,21.34-10.67,42.3-8.69,64.17.55,5.83-.42,15.48,6.79,18,12.8,4.86,28.22,1.68,38.82-6.8,11.15-9.37,22.93-18.09,36.11-24.37.62-12.55,6.53-24.71,4.88-37.32-3.79-.89-8.95-1.34-8.2,4.09-.12,25.14-20.68,45.22-43.63,52.13-2.06-48,14.39-94.39,23.38-141.11,1.16-14.36,12.58-25.16,12.57-39.67,2.08-28.71,9-56.72,13.7-85,17.1-55.83,21.09-114.43,35.71-170.85,2.05-20.51,9.91-39.86,11.44-60.44,1.33-10.58,5.83-20.33,8.31-30.6,10.27-55.91,23.48-111.44,42.69-165,9.81-19.93,17.87-41,20.71-63.16,1.83-17.87,16.27-32.91,12.52-51.57a27.45,27.45,0,0,0-5.78-.71c-4.45,25.71-12.65,50.8-22.57,74.9-17.62,30.45-18.41,66.79-33.6,98.24C299.76,486.69,278.92,524.54,273,566c-5.91,35.67-17.21,70.28-21.15,106.3C248.7,699.49,242,726,236.42,752.71c-2.24,34.72-13.06,68-16.17,102.66C212.07,908.31,190,958,182.83,1011.08c-.94,21.94-4.74,43.61-9.93,64.9-1.05,4.28-4.86,8.16-9.56,7.62-3.82-4.44-6.25-10.26-5.55-16.27-1.86-45.24,18.55-87.17,21.72-131.8,4.67-41.47,21-80.45,25.63-121.93,12.52-54.05,28.33-107.22,40-161.46,4.9-38.48,24.46-74,23.74-113.47,5.1-34,13.66-67.44,21.95-100.79,7.77-46.53,26.12-90.24,38.88-135.44,4.36-15.12,13.2-28.79,15.86-44.39Zm46,18.35c-2.63,14-10.74,26.21-12.19,40.41-1.79,16.82-14.23,32.63-12.31,49,13,7,9.4-9.08,14-15.43,4.73-21.35,13.18-41.84,15.57-63.65.27-4.74.74-10.37-5-10.36Zm148.69,85.72c-8.13,0-16.43.9-24.36.75-52.38,7-105.8,14-154.86,34.54-12.48,9.4-20.25,23.45-29.92,35.43-9.72,8.72-2.49,22.45-3.22,33.32,7.95,5.23,18.41,2.34,27.26,3.81,60.39,4.39,119.88-8.87,179.87-12.42,4.79-1.53,12.95.75,16-4.84-5.71-10.25-19.35-10.31-29.62-9.15-26.76,3.1-53.57,6.47-79.79,12.7-32,7.3-65.24,7.59-97.76,5.55-7.24-1.25-8.21-8.3-1.23-10.87,41.32-11.26,84.16-16.27,126.89-18.84,29.45-1.85,58.83-6.37,88.28-7.27,6.38-1.54-.2-7.8-4.05-7.8-24.53-3.24-49.61-1.33-74.1,1.55-24.14,5.47-49.26,5.61-73.08,12.73-16.21,2.5-32.74,2.83-49.07,4.21-3.72,2.42-15.15-1.38-10.74-7.08,10.21-16.36,26.75-29.12,44.74-35.9,51.71-14.7,106-14.82,159.2-16.21,4.7-1.38,13.3-2.92,13-9-7.29-4.12-15.26-5.17-23.41-5.21ZM455.67,521c-18.54-.1-37.17,1-55.61,1.12-22.54.2-45,3.55-67,8.08-14.09,13.13-24.75,29.77-40.37,41.47-1.35,15.49-1.34,34.61,12.21,45.35a66.54,66.54,0,0,0,27.66-3.18c16.38-5.16,33.65-2.69,50.48-4.2,34-5.71,68.85-3.73,102.78-10.18,13.55-4,27.73-5.31,41.17-9.7.64-5.28-2.16-6.83-8.36-4.63-20,1.67-40.3,1.25-59.92,5.79-24.89,3.7-50.23,4.09-74.94,8.92-24.75,3.85-50.3-.9-74.64,5.34a31.49,31.49,0,0,1-6.82-11.39c5.68-7.92,16.83-9,25.73-9.7,31.92-1.63,64.23-.69,95.69-6.86,26.74-.16,53.16-9.58,79.8-5.93,9.33,4.32,19.32,0,28.49-2.59,1.66-2,12.73-1.49,9.54-7-29.11,2.9-58.41,2.4-87.29,6.56-45.13,2.44-90.57,1.34-135.39,6.94-4,1.46-12.41-.47-9.72-6.11,12.68-11,24.75-22.81,37.84-33.33,62.05.33,124.55-5.73,186.74-1.12.13-2.4.6-5.27-2.31-6.13-10.19-6.82-22.59,2.43-32.8-4.17a257.61,257.61,0,0,0-43-3.36Zm215.71,59.4a4.48,4.48,0,0,0-1.17.1c-4.69,1-9.08,6-5.59,11.41,1,37,28.7,66.26,30.82,103,2.91,14.48,8.48,28.21,13.64,42,4.84,20,7.58,40.54,13.17,60.4,3.48,10.54,9.26,20.38,10.5,31.64-.2,4,4,2.75,6.67,2.7,5-8.22.69-17.93-1.91-26.22-2.82-17.31-9.77-33.52-15.43-50-7.11-37-14.45-74.18-28-109.46-2.16-17.56-10.67-33.31-18.05-49.06-2.75-4.59.59-16.22-4.64-16.46Zm-25.76,50a8.59,8.59,0,0,0-1,.1c-5.29,8.71,3,20.44,3.61,29.56,3.55,21.88,18.21,40.07,19.62,62.58,2.25,41.1,25.92,77.12,29.49,117.94.63,12.5,8.21,23,10.35,35.17,8.6,52.06,28.7,102.1,30.26,155.26,9.56,17.78,2.72,40.2,12.74,57.36,13.34.4,22.84-10.65,34.69-14.91,14.88-6.57,19.23-23.53,28.2-35.62,6.48-9.25-.26-20.51-1-30.45-3.53-22.8-16.21-42.81-20.35-65.42-1.54-11.74-3.71-23.76-9.22-34.36-3.07-2.27-8.53-3.68-11,.12-.77,14.8,9.81,26.65,12,40.9,4.74,28.43,22.56,54.89,18,84.28,5.18,8.38-7.85,9.09-6.72,3.36-1.36-24.56-12.84-46.45-19-69.84-6.25-14.93-3.55-32.51-13-46.2-.28-5.47-6-3.12-8-.91,4.41,37,22,71,27.36,107.88,3.61,12.17,8.52,27.14-3.45,36.6-5.66,4-16.63,12.33-21.85,3.49-1.73-26.94-13.34-51.88-16.48-78.63-6.66-25.55-4.83-52.78-15-77.5-3.87-6.57-3.39-14-4-21.27-11.66-42-25.86-83.56-32.07-126.91-4.63-13.52-5.62-27.94-11.35-41.08-3.63-31.2-16.25-60-26-89.41a10.77,10.77,0,0,0-6.72-2.09Zm-335.68,3.43a7,7,0,0,0-5.94,3.73c1.61,19.74,5.34,44-12.4,57.9-11.17,11.17-30.43,21.25-26.51,39.91-4.23,11.77,9.33,11.35,13.52,18.33-1.61,17.11-3.63,34.21-3.72,51.42-8.72,11.75-21.51,20.62-27.48,34.33-2.31,7.73-6.17,18.1,0,25,10.85,5.75,23.26,9.36,35.63,7.09,68.28-3.6,136.43-8.74,203.68-21.71l-.41-3c-73.12,3.56-146,14.09-219.41,11.68-9.39,5.45-8.27-1.8-8.52-6.12,12.44-10.45,29.67-14,44.47-5.84,66.87-.74,133.71-9.36,200.81-12.46,6.81.33,9-6.45,6.11-12.5C437.54,822.9,366.14,839,293.76,832c-7.24-3.1-15.15-1.84-22.78-2.09-2.52-4.7,2.06-8.39,5.68-10.61,17.51-9.32,37.35-12.85,56.9-14.74,22.27-6.19,45.8-2.5,68.17-7.79,21.17-1.71,42.84-.06,63.6-5.3,16-2,38.18,1.51,49.83-10.29-61,6.2-122.3,9.37-183.2,16.83-14,.49-28.08,1.22-42.13,1.85-12.46-7.18-4.28-24.49-1.45-34.92,5-15.24,24.45-13.25,37-15.33,17.78-5.59,36.46-6.34,54.71-9.49,42.54-2.3,84.3-11.57,126.81-13.82,2.72-.89,8.52-1,6.28-5.21-76.56-3.5-151.84,24.66-228.17,15.43-.55-.48-1.69-1.43-2.25-1.93,17.73-7.7,36.37-12.63,55.21-16.68,59,.52,116.71-14.88,175.61-16.41,4.56.33,5.52-5.7,4.62-9.14-32.69-1.61-64.67,6.39-97.16,8.17-40.44,4.55-81.28,7-121.22,15.21-4.1.2-12.95,2.39-10.44-3.87,9-12.53,17.35-30,35.09-30.78,32.44-6.63,65.78-6.09,98.28-12.25,26.81-5,54.2-5.4,81.09-9.29,8.52.87,17.27,1.36,25.36-2.19-1-5.74-9.62-2.05-12.61-3.54-62.84-.54-125.57,5.56-187.29,17.14-6.52,4.52-14.39,2.56-18.47-4.2.58-9.14,5.5-17.46,6.71-26.52a35,35,0,0,0-3.22-5.43,9,9,0,0,0-4.36-.93ZM722.32,676a4.76,4.76,0,0,0-2.11.47c-2.33,20.3,10.32,37.43,12.15,57,3.92,22.77,17,42.54,22,65,.94,4.92,4.24,11.71,10.36,8.92.36-11.3-3.3-22.29-6.12-33.09-14.44-29.71-12.67-64.78-28.25-94-2.48-1.49-5.07-4.35-8-4.39ZM261.91,895.42c-14.57,13.28-6.07,40.11-21.74,53.86-10.56,8.55-17.94,21.48-31.45,25.74-6.35,6.51-.83,18.77-.8,26.89.69,6.11,7.45,18.42,15.08,12.6,10.4-9.26,25.68-5.76,38.28-7.21,79.89-6.13,160-13.72,238.31-31.62a3.64,3.64,0,0,0,2-4.78c-32.39,2.05-64.31,8.25-96.72,10.4-45.45,7-91,15.56-137.18,15-9.4-.66-17.37,5-26.36,6.37a42.09,42.09,0,0,1-22.83-7.17c-1.67-6.77,5.89-12.13,12.33-10.46,9.91-.79,20-6.06,29.67-1.29a707.88,707.88,0,0,1,73.84-10.58c28.06-6.19,57.78-3.39,85.05-13.49,4.94,1.7,9.58,4.94,15.23,3,20.07-2.12,40.66-.58,60.4-5.34,2.43-5.29-3.71-7.14-7.79-7.75-32.72-2-65.63.74-97.85,6.38-20.8,3.54-42.21,2.53-62.68,8-17.08,2.31-34.4.86-51.5,3-13.34,3.77-26.54,11-40.78,8.54-3.87-.66-3.27-5.58-.86-7.58,9.83-9.65,21.66-17.13,34-23.19,14-6.07,29.64-3.85,44.45-5.8,55.87-3.49,112-5.23,167.59-12,10.5-4.44,31.25,5.36,34.27-9.78-22.17-5.13-45.55-4.15-68.2-3.95-7,1.35-14,2.62-21,3.94-2.52,1.19-4.9,2.93-7.71,3.36-50.62,3.2-101.16,5.8-151.42,12-6.82-10,9-30.32-3.59-37Z" style="fill:#5d2b05"/><path d="M531.39,129.78c8.1.1,20.92-4.6,26.3,4.19,1.09,10.32,3.83,21.14,13.45,26.67,4.16,7.32-9.44,5.84-13.57,3.68-12-1.38-8.16-16.74-16.53-21.78A438,438,0,0,0,465.19,154c-.64-5.65,6-7.8,9.76-10.21,17.12-10.07,37.15-11.89,56.44-14Z" style="fill:#db9967"/></g></svg>